# xmcd CD database file
#
# Track frame offsets:
#	150
#	6761
#	19611
#	30148
#	38852
#	51070
#	62118
#	73327
#	86255
#	97559
#	109556
#	121222
#	133102
#	145353
#	157394
#	168898
#	182088
#	193762
#
# Disc length: 2731 seconds
#
# Revision: 1
# Processed by: cddbd v1.4PL0 Copyright (c) Steve Scherf et al.
# Submitted via: jetAudio 5
#
DISCID=e80aa912
DTITLE=Guitare Country - Guitare Country cd2
DYEAR=1900
DGENRE=
TTITLE0=Dance of the doggies
TTITLE1=Fat bay rag
TTITLE2=Three guitars special
TTITLE3=lost John
TTITLE4=Dizzy strings
TTITLE5=Guitar rag
TTITLE6=Galloping on the guitar
TTITLE7=guitar artistry
TTITLE8=So happy i'll be
TTITLE9=express boggies
TTITLE10=hibilly jump
TTITLE11=boogie woogie lou
TTITLE12=sugarfoot rag
TTITLE13=lets' go dancin
TTITLE14=sugarfoot boogie
TTITLE15=hillbilly fever
TTITLE16=bryant's boogie
TTITLE17=red headed polka
EXTD=
EXTT0=
EXTT1=
EXTT2=
EXTT3=
EXTT4=
EXTT5=
EXTT6=
EXTT7=
EXTT8=
EXTT9=
EXTT10=
EXTT11=
EXTT12=
EXTT13=
EXTT14=
EXTT15=
EXTT16=
EXTT17=
PLAYORDER=
